<svg xmlns="http://www.w3.org/2000/svg" viewBox="0 0 22 22"><g id="bf62385f-4ce0-49b7-8498-6b9e7a93e645" data-name="Layer 2"><g id="ba381452-575c-4d2a-b1d8-7e0a514e8117" data-name="Layer 1"><path d="M20.09,1.89C18.91.75,17.51,0,14.45,0H7.55C4.49,0,3.08.75,1.89,1.91S0,4.49,0,7.55v6.9c0,3.06.75,4.47,1.91,5.66S4.49,22,7.55,22h6.9c3.06,0,4.47-.75,5.66-1.91S22,17.51,22,14.45V7.55C22,4.49,21.25,3.08,20.09,1.89ZM20,14.45c0,2.66-.63,3.53-1.3,4.22S17.1,20,14.45,20H7.55C4.9,20,4,19.35,3.32,18.7S2,17.11,2,14.45V7.55C2,4.89,2.63,4,3.3,3.33S4.9,2,7.55,2h6.9c2.65,0,3.55.66,4.22,1.3S20,4.89,20,7.55Z" style="fill:#f5f5f5"/><path d="M16.46,10H12V5.54a1,1,0,1,0-2,0V10H5.54a1,1,0,1,0,0,2H10v4.46a1,1,0,0,0,2,0V12h4.46a1,1,0,0,0,0-2Z" style="fill:#f5f5f5"/></g></g></svg>