<svg xmlns="http://www.w3.org/2000/svg" viewBox="0 0 23 23"><g id="a0a5224a-df29-49f8-a2af-642f5bcacf75" data-name="Layer 2"><g id="ba50ac63-71d7-4756-913b-36d419120771" data-name="Layer 1"><polygon points="12.67 12.66 14.16 8.84 10.33 10.32 12.67 12.66" style="fill:#f5f5f5"/><path d="M11.5,0A11.5,11.5,0,1,0,23,11.5,11.5,11.5,0,0,0,11.5,0Zm5.35,7.44h0l-2.48,6.37a1,1,0,0,1-.57.57L7.44,16.85a1,1,0,0,1-1.29-1.29L8.63,9.19a1,1,0,0,1,.57-.57l6.36-2.47a1,1,0,0,1,1.29,1.29Z" style="fill:#f5f5f5"/></g></g></svg>