<svg xmlns="http://www.w3.org/2000/svg" viewBox="0 0 23.01 20.2"><g id="b7acfa12-cd0d-4e5d-a794-418f3619b795" data-name="Layer 2"><g id="e8954bdb-1295-4b22-8968-00193cb50e66" data-name="Layer 1"><path d="M16.3,0a6.05,6.05,0,0,0-4.8,2.13A6.06,6.06,0,0,0,6.71,0,7,7,0,0,0,0,7.22c0,3.61,2.55,5.83,5,8l.85.75,1,.92a44,44,0,0,0,3.52,3,2,2,0,0,0,2.17,0,46.53,46.53,0,0,0,3.63-3.11l.92-.82.88-.78c2.34-2,5-4.32,5-7.94A7,7,0,0,0,16.3,0Zm-.49,14.44c-2.51,2.25-3.87,3.47-4.31,3.76-.47-.31-2.14-1.83-4.3-3.76C4.65,12.17,2,10.27,2,7.22A5,5,0,0,1,6.71,2a4.25,4.25,0,0,1,3.68,1.94c.84,1.18,1,1.77,1.12,1.77s.28-.59,1.11-1.77A4.18,4.18,0,0,1,16.3,2,5,5,0,0,1,21,7.22C21,10.29,18.35,12.18,15.81,14.44Z" style="fill:#f5f5f5"/></g></g></svg>