<svg xmlns="http://www.w3.org/2000/svg" viewBox="0 0 21.76 21.75"><g id="a3433ac8-d19a-46df-aba1-e90659d0d99b" data-name="Layer 2"><g id="bbd63fc7-9504-4706-9bc5-a02cbaf5c241" data-name="Layer 1"><path d="M18.41,2.86A10.52,10.52,0,0,0,10.87,0h-.41A10.53,10.53,0,0,0,0,10.57a10.22,10.22,0,0,0,3.41,7.78l.06,1.78a1.51,1.51,0,0,0,.14.62,1.65,1.65,0,0,0,2.2.85l1.94-.87a11.25,11.25,0,0,0,3.1.42h.67A10.58,10.58,0,0,0,18.41,2.86ZM11.47,19.41h-.6a10.22,10.22,0,0,1-2.67-.36,1.63,1.63,0,0,0-1.11.09L5.2,20l0-1.69a1.68,1.68,0,0,0-.56-1.18,8.64,8.64,0,0,1-2.85-6.53,8.79,8.79,0,0,1,8.73-8.83h.43A8.83,8.83,0,0,1,20,10.29,8.85,8.85,0,0,1,11.47,19.41Z" style="fill:#f5f5f5;fill-rule:evenodd"/><path d="M16.45,8.1a.66.66,0,0,0-.76,0l-2.55,2a.65.65,0,0,1-.76,0L9.93,8.35a1.58,1.58,0,0,0-2.21.31l-.07.11-2.57,4a.66.66,0,0,0,1,.87l2.56-2a.63.63,0,0,1,.76,0l2.45,1.84A1.58,1.58,0,0,0,14,13.09l.07-.1,2.57-4A.66.66,0,0,0,16.45,8.1Z" style="fill:#f5f5f5;fill-rule:evenodd"/></g></g></svg>