<svg xmlns="http://www.w3.org/2000/svg" viewBox="0 0 22 22"><g id="af2c0d3d-0019-4134-af9d-b8711e921ec0" data-name="Layer 2"><g id="e9a322d8-5d35-417b-9781-9a0872076e32" data-name="Layer 1"><path d="M20.09,1.89C18.92.75,17.51,0,14.45,0H7.55C4.49,0,3.08.75,1.89,1.91S0,4.49,0,7.55v6.9c0,3.06.75,4.47,1.91,5.66S4.49,22,7.55,22h6.9c3.06,0,4.47-.75,5.66-1.91S22,17.51,22,14.45V7.55C22,4.49,21.25,3.08,20.09,1.89ZM18.67,3.3a4,4,0,0,1,1,1.7H15.94L14.23,2h.22C17.1,2,18,2.66,18.67,3.3ZM9.58,5,7.87,2h4.05l1.72,3ZM5.65,2.16,7.28,5h-5a3.84,3.84,0,0,1,1-1.67A4.09,4.09,0,0,1,5.65,2.16ZM20,14.45c0,2.66-.65,3.56-1.3,4.23S17.1,20,14.45,20H7.55C4.9,20,4,19.35,3.32,18.7S2,17.11,2,14.45V7.55c0-.2,0-.37,0-.55H20c0,.18,0,.35,0,.55Z" style="fill:#f5f5f5;fill-rule:evenodd"/><path d="M14.22,12.47,9.67,9.84a.89.89,0,0,0-.45-.12.91.91,0,0,0-.91.91v5.25a.9.9,0,0,0,.45.78h0a.88.88,0,0,0,.91,0L14.22,14a.87.87,0,0,0,.33-.33A.91.91,0,0,0,14.22,12.47Z" style="fill:#f5f5f5;fill-rule:evenodd"/></g></g></svg>